# xmcd
#
# Track frame offsets: 
#        150
#        18001
#        32213
#        60710
#        77572
#        99451
#        115968
#        142109
#        162974
#        195301
#        230493
#        247642
#        271962
#        284971
#        304077
#        313984
#        327814
#
# Disc length: 4624 seconds
#
# Revision: 0
# Processed by: cddbd v1.5.2PL0 Copyright (c) Steve Scherf et al.
# Submitted via: ExactAudioCopy v1.1
#
DISCID=e9120e11
DTITLE=Various Artist - Secret City Records 10 Years [CD2]
DYEAR=2016
DGENRE=Folk
TTITLE0=Basia Bulat - It Can't Be You
TTITLE1=Owen Pallett - Keep The Dog Quiet
TTITLE2=Thus Owls - Smoke Like Birds
TTITLE3=Owen Pallett - The Riverbed
TTITLE4=The Barr Brothers - Half Crazy
TTITLE5=Daniel Isaiah - Tug Of War
TTITLE6=Suuns and Jerusalem In My Heart - In Touch
TTITLE7=The Barr Brothers - Never Been A Captain
TTITLE8=Patrick Watson - Know That You Know
TTITLE9=Jesse Mac Cormack - No Other
TTITLE10=Emilie and Ogden - Dream
TTITLE11=Thus Owls - Asleep In The Water
TTITLE12=Basia Bulat - I Was A Daughter
TTITLE13=Basia Bulat - Good Advice
TTITLE14=Suuns - Infinity
TTITLE15=Plants and Animals - Stay
TTITLE16=Jesse Mac Cormack - Never Enough
EXTD=
EXTT0=
EXTT1=
EXTT2=
EXTT3=
EXTT4=
EXTT5=
EXTT6=
EXTT7=
EXTT8=
EXTT9=
EXTT10=
EXTT11=
EXTT12=
EXTT13=
EXTT14=
EXTT15=
EXTT16=
PLAYORDER=
